ffmpeg version 8.1 Copyright (c) 2000-2026 the FFmpeg developers
  built with Apple clang version 21.0.0 (clang-2100.0.123.102)
  configuration: --prefix=/opt/homebrew/Cellar/ffmpeg/8.1 --enable-shared --enable-pthreads --enable-version3 --cc=clang --host-cflags= --host-ldflags= --enable-ffplay --enable-gpl --enable-libsvtav1 --enable-libopus --enable-libx264 --enable-libmp3lame --enable-libdav1d --enable-libvmaf --enable-libvpx --enable-libx265 --enable-openssl --enable-videotoolbox --enable-audiotoolbox --enable-neon
  libavutil      60. 26.100 / 60. 26.100
  libavcodec     62. 28.100 / 62. 28.100
  libavformat    62. 12.100 / 62. 12.100
  libavdevice    62.  3.100 / 62.  3.100
  libavfilter    11. 14.100 / 11. 14.100
  libswscale      9.  5.100 /  9.  5.100
  libswresample   6.  3.100 /  6.  3.100
Input #0, mov,mp4,m4a,3gp,3g2,mj2, from 'raw_heygen_v10.mp4':
  Metadata:
    major_brand     : isom
    minor_version   : 512
    compatible_brands: isomiso2avc1mp41
    encoder         : Lavf62.3.100
  Duration: 00:01:02.36, start: 0.000000, bitrate: 677 kb/s
  Stream #0:0[0x1](und): Video: h264 (High) (avc1 / 0x31637661), yuv420p(progressive), 1280x720 [SAR 1:1 DAR 16:9], 482 kb/s, 25 fps, 25 tbr, 12800 tbn (default)
    Metadata:
      handler_name    : VideoHandler
  Stream #0:1[0x2](und): Audio: aac (LC) (mp4a / 0x6134706D), 48000 Hz, stereo, fltp, 189 kb/s (default)
    Metadata:
      handler_name    : SoundHandler
Input #1, png_pipe, from '/Users/haotianliu/.openclaw/workspace/ystar-company/content/offended_ai/v10/overlay_lower_third.png':
  Duration: N/A, bitrate: N/A
  Stream #1:0: Video: png, rgba(pc, gbr/unknown/unknown), 1280x720, 25 fps, 25 tbr, 25 tbn
Stream mapping:
  Stream #0:0 (h264) -> overlay
  Stream #1:0 (png) -> overlay
  overlay:default -> Stream #0:0 (libx264)
  Stream #0:1 -> #0:1 (aac (native) -> aac (native))
Press [q] to stop, [?] for help
[libx264 @ 0xae3051880] using SAR=1/1
[libx264 @ 0xae3051880] using cpu capabilities: ARMv8 NEON DotProd I8MM
[libx264 @ 0xae3051880] profile High 4:4:4 Predictive, level 3.1, 4:4:4, 8-bit
[libx264 @ 0xae3051880] 264 - core 165 r3222 b35605a - H.264/MPEG-4 AVC codec - Copyleft 2003-2025 - http://www.videolan.org/x264.html - options: cabac=1 ref=3 deblock=1:0:0 analyse=0x3:0x113 me=hex subme=7 psy=1 psy_rd=1.00:0.00 mixed_ref=1 me_range=16 chroma_me=1 trellis=1 8x8dct=1 cqm=0 deadzone=21,11 fast_pskip=1 chroma_qp_offset=4 threads=15 lookahead_threads=2 sliced_threads=0 nr=0 decimate=1 interlaced=0 bluray_compat=0 constrained_intra=0 bframes=3 b_pyramid=2 b_adapt=1 b_bias=0 direct=1 weightb=1 open_gop=0 weightp=2 keyint=250 keyint_min=25 scenecut=40 intra_refresh=0 rc_lookahead=40 rc=crf mbtree=1 crf=20.0 qcomp=0.60 qpmin=0 qpmax=69 qpstep=4 ip_ratio=1.40 aq=1:1.00
Output #0, mp4, to 'episode_001_FINAL_60s_v10.mp4':
  Metadata:
    major_brand     : isom
    minor_version   : 512
    compatible_brands: isomiso2avc1mp41
    encoder         : Lavf62.12.100
  Stream #0:0: Video: h264 (avc1 / 0x31637661), yuv444p(tv, progressive), 1280x720 [SAR 1:1 DAR 16:9], q=2-31, 25 fps, 12800 tbn
    Metadata:
      encoder         : Lavc62.28.100 libx264
    Side data:
      CPB properties: bitrate max/min/avg: 0/0/0 buffer size: 0 vbv_delay: N/A
  Stream #0:1(und): Audio: aac (LC) (mp4a / 0x6134706D), 48000 Hz, stereo, fltp, 128 kb/s (default)
    Metadata:
      encoder         : Lavc62.28.100 aac
      handler_name    : SoundHandler
frame=  124 fps=0.0 q=25.0 size=     256KiB time=00:00:04.88 bitrate= 429.8kbits/s speed=9.66x elapsed=0:00:00.50    frame=  303 fps=301 q=25.0 size=     512KiB time=00:00:12.04 bitrate= 348.4kbits/s speed=11.9x elapsed=0:00:01.00    frame=  514 fps=340 q=25.0 size=    1024KiB time=00:00:20.48 bitrate= 409.6kbits/s speed=13.5x elapsed=0:00:01.51    frame=  750 fps=372 q=25.0 size=    1536KiB time=00:00:29.92 bitrate= 420.6kbits/s speed=14.8x elapsed=0:00:02.01    frame=  976 fps=387 q=25.0 size=    2048KiB time=00:00:38.96 bitrate= 430.6kbits/s speed=15.4x elapsed=0:00:02.52    frame= 1204 fps=398 q=25.0 size=    2560KiB time=00:00:48.08 bitrate= 436.2kbits/s speed=15.9x elapsed=0:00:03.02    frame= 1425 fps=404 q=25.0 size=    3072KiB time=00:00:56.92 bitrate= 442.1kbits/s speed=16.1x elapsed=0:00:03.52    [mp4 @ 0xae2c27980] Starting second pass: moving the moov atom to the beginning of the file
[out#0/mp4 @ 0xae2c14780] video:2605KiB audio:930KiB subtitle:0KiB other streams:0KiB global headers:0KiB muxing overhead: 1.352786%
frame= 1559 fps=411 q=-1.0 Lsize=    3584KiB time=00:01:02.28 bitrate= 471.4kbits/s speed=16.4x elapsed=0:00:03.79    
[libx264 @ 0xae3051880] frame I:7     Avg QP:12.86  size: 99686
[libx264 @ 0xae3051880] frame P:393   Avg QP:15.79  size:  3595
[libx264 @ 0xae3051880] frame B:1159  Avg QP:20.19  size:   480
[libx264 @ 0xae3051880] consecutive B-frames:  0.6%  0.5%  0.6% 98.3%
[libx264 @ 0xae3051880] mb I  I16..4:  4.2% 73.2% 22.7%
[libx264 @ 0xae3051880] mb P  I16..4:  0.1%  0.4%  0.1%  P16..4:  8.9%  3.6%  2.3%  0.0%  0.0%    skip:84.6%
[libx264 @ 0xae3051880] mb B  I16..4:  0.0%  0.0%  0.0%  B16..8:  5.8%  0.6%  0.1%  direct: 0.0%  skip:93.4%  L0:44.1% L1:50.3% BI: 5.6%
[libx264 @ 0xae3051880] 8x8 transform intra:73.3% inter:68.3%
[libx264 @ 0xae3051880] coded y,u,v intra: 53.0% 34.1% 31.6% inter: 1.5% 0.4% 0.3%
[libx264 @ 0xae3051880] i16 v,h,dc,p: 28% 41% 17% 14%
[libx264 @ 0xae3051880] i8 v,h,dc,ddl,ddr,vr,hd,vl,hu: 23% 13% 46%  2%  3%  4%  4%  2%  4%
[libx264 @ 0xae3051880] i4 v,h,dc,ddl,ddr,vr,hd,vl,hu: 23% 28% 17%  4%  6%  5%  8%  3%  6%
[libx264 @ 0xae3051880] Weighted P-Frames: Y:0.0% UV:0.0%
[libx264 @ 0xae3051880] ref P L0: 52.0%  8.0% 24.9% 15.1%
[libx264 @ 0xae3051880] ref B L0: 86.7% 10.3%  3.0%
[libx264 @ 0xae3051880] ref B L1: 96.1%  3.9%
[libx264 @ 0xae3051880] kb/s:342.17
[aac @ 0xae3051f80] Qavg: 5941.560
portrait: /Users/haotianliu/.openclaw/workspace/ystar-company/content/offended_ai/v10/sofia_portrait_v10.jpg (47294 bytes)
bg:       /Users/haotianliu/.openclaw/workspace/ystar-company/content/offended_ai/v10/terrace_bg_v10.png (791237 bytes)
[v10] script word count = 173

== 1. Upload clean portrait (green-cropped) ==
{
  "code": 100,
  "data": {
    "id": "b832d3f769744d5ea17c9fd0384459b3",
    "name": "b832d3f769744d5ea17c9fd0384459b3",
    "file_type": "image",
    "folder_id": "",
    "meta": null,
    "created_ts": 1776137813,
    "url": "https://resource2.heygen.ai/image/b832d3f769744d5ea17c9fd0384459b3/original.jpg",
    "image_key": "image/b832d3f769744d5ea17c9fd0384459b3/original.jpg"
  },
  "msg": null,
  "message": null
}

== 2. Create photo avatar group ==
{
  "error": null,
  "data": {
    "id": "6f2e563c9de74483a6e0470108c5c2da",
    "image_url": "https://files2.heygen.ai/image/b832d3f769744d5ea17c9fd0384459b3/original.jpg?Expires=1776742613&Signature=VYtuLNK7m8TMYThNEHHJllBPhHCyjDFY3LGrCx9c~tjVSj5rHuHX58utPfkkQQ6j83R4nQFRbzaU5hF2fTshetwL8t-1GXtrOXF06h7bVeOOuI0l190t~6GjjFjKOzquvrBpf8V~YjCKBvQrcTtE2pmE6VBo0xRzgdMSajLo6mtH5zb9un3m1X5Dtgluj8L1hu0j61YeYHkaXkG0LIx3sbAhDGe1NqrKtZiyejOPM1XryT4fKoSFqydK~hiD9dhfpfOrFYjb0IKhUtH~FNeovSqXfevx3FnNz-g2QFCWbZ17seM2wmxyOldeWEO4~zg0rOz9DxHf~bauxqLteSexLA__&Key-Pair-Id=K38HBHX5LX3X2H",
    "created_at": 1776137813.500554,
    "name": "sofia_v10_terrace_ai_20260413",
    "status": "pending",
    "group_id": "6f2e563c9de74483a6e0470108c5c2da",
    "is_motion": false,
    "motion_preview_url": null,
    "business_type": "uploaded",
    "upscale_availability": {
      "available": false,
      "reason": "Photo avatar look upload not completed"
    },
    "upscaled": false,
    "background_sound_effect": null,
    "default_voice_id": null,
    "moderation_msg": null,
    "workflow_error": null
  }
}

== 2b. Allow 60s for internal dimension extraction ==

== 3. Upload AI-generated Sofia-free terrace bg ==
{
  "code": 100,
  "data": {
    "id": "b74a47093d344b46887381ccea9956a8",
    "name": "b74a47093d344b46887381ccea9956a8",
    "file_type": "image",
    "folder_id": "",
    "meta": null,
    "created_ts": 1776137875,
    "url": "https://resource2.heygen.ai/image/b74a47093d344b46887381ccea9956a8/original.png",
    "image_key": "image/b74a47093d344b46887381ccea9956a8/original.png"
  },
  "msg": null,
  "message": null
}

== 4. Generate Avatar IV (AI terrace bg server-composited) ==
{
  "error": null,
  "data": {
    "video_id": "07c630bea6694e938b6a1b6b37922617"
  }
}

== 5. Poll status ==
[00] status=waiting
[01] status=processing
[02] status=processing
[03] status=processing
[04] status=processing
[05] status=processing
[06] status=processing
[07] status=processing
[08] status=processing
[09] status=processing
[10] status=processing
[11] status=processing
[12] status=processing
[13] status=processing
[14] status=processing
[15] status=processing
[16] status=processing
[17] status=processing
[18] status=completed
VIDEO_URL=https://files2.heygen.ai/aws_pacific/avatar_tmp/e57ca395ff1740708674fe17987df17b/07c630bea6694e938b6a1b6b37922617.mp4?Ex...
Downloaded raw_heygen_v10.mp4 (5283137 bytes)

== 6. Composite lower-third overlay ==
Wrote episode_001_FINAL_60s_v10.mp4 (3669507 bytes)
Copied -> /Users/haotianliu/.openclaw/workspace/ystar-company/content/offended_ai/episode_001_FINAL_60s_v10.mp4
duration_sec=62.360000
sha256=d15fa57d909cd548be93b446efb7b45ddd0b6495e215c4d4151754ac7505bad4
bytes=3669507
